<?xml version="1.0" encoding="UTF-8" standalone="no"?>
<svg
   xmlns:dc="http://purl.org/dc/elements/1.1/"
   xmlns:cc="http://creativecommons.org/ns#"
   xmlns:rdf="http://www.w3.org/1999/02/22-rdf-syntax-ns#"
   xmlns:svg="http://www.w3.org/2000/svg"
   xmlns="http://www.w3.org/2000/svg"
   xmlns:sodipodi="http://sodipodi.sourceforge.net/DTD/sodipodi-0.dtd"
   xmlns:inkscape="http://www.inkscape.org/namespaces/inkscape"
   width="128"
   height="128"
   viewBox="0 0 33.866666 33.866668"
   version="1.1"
   id="svg8"
   inkscape:version="1.0.2 (e86c870879, 2021-01-15)"
   sodipodi:docname="cloud.svg">
  <defs
     id="defs2" />
  <sodipodi:namedview
     id="base"
     pagecolor="#333333"
     bordercolor="#666666"
     borderopacity="1.0"
     inkscape:pageopacity="0"
     inkscape:pageshadow="2"
     inkscape:zoom="6.5625"
     inkscape:cx="64"
     inkscape:cy="64"
     inkscape:document-units="mm"
     inkscape:current-layer="layer1"
     inkscape:document-rotation="0"
     showgrid="false"
     inkscape:pagecheckerboard="true"
     units="px"
     inkscape:window-width="1920"
     inkscape:window-height="1031"
     inkscape:window-x="0"
     inkscape:window-y="0"
     inkscape:window-maximized="1" />
  <metadata
     id="metadata5">
    <rdf:RDF>
      <cc:Work
         rdf:about="">
        <dc:format>image/svg+xml</dc:format>
        <dc:type
           rdf:resource="http://purl.org/dc/dcmitype/StillImage" />
        <dc:title></dc:title>
      </cc:Work>
    </rdf:RDF>
  </metadata>
  <g
     inkscape:label="Layer 1"
     inkscape:groupmode="layer"
     id="layer1">
    <path
       id="path119"
       style="fill:#ffffff;stroke-width:0.309102"
       d="M 13.949409,7.8288068 C 9.8198898,7.8486668 6.3368164,10.909378 5.7862554,15.002079 h -0.00377 c -3.0474528,0 -5.51790172,2.470449 -5.51790152,5.517902 -2e-7,3.047454 2.47044872,5.517901 5.51790152,5.517901 H 28.773919 c 2.66652,0 4.828164,-2.161643 4.828164,-4.828163 0,-2.666521 -2.161644,-4.828164 -4.828164,-4.828164 -0.160345,1.05e-4 -0.320582,0.0082 -0.480121,0.02425 -0.782836,-2.633045 -3.203111,-4.438499 -5.950066,-4.438569 -0.37831,4.8e-5 -0.755824,0.03468 -1.127829,0.10346 -1.46228,-2.6189752 -4.227069,-4.2418532 -7.226619,-4.2418872 -0.01329,-3.2e-5 -0.02659,-3.2e-5 -0.03988,0 z"
       sodipodi:nodetypes="ccssccscccccc" />
  </g>
</svg>
