<?xml version="1.0" encoding="UTF-8" standalone="no"?>
<svg
   width="128"
   height="128"
   viewBox="0 0 33.866666 33.866668"
   version="1.1"
   id="svg8"
   inkscape:version="1.2.2 (b0a8486541, 2022-12-01)"
   sodipodi:docname="cloud.svg"
   xmlns:inkscape="http://www.inkscape.org/namespaces/inkscape"
   xmlns:sodipodi="http://sodipodi.sourceforge.net/DTD/sodipodi-0.dtd"
   xmlns="http://www.w3.org/2000/svg"
   xmlns:svg="http://www.w3.org/2000/svg"
   xmlns:rdf="http://www.w3.org/1999/02/22-rdf-syntax-ns#"
   xmlns:cc="http://creativecommons.org/ns#"
   xmlns:dc="http://purl.org/dc/elements/1.1/">
  <defs
     id="defs2" />
  <sodipodi:namedview
     id="base"
     pagecolor="#333333"
     bordercolor="#666666"
     borderopacity="1.0"
     inkscape:pageopacity="0"
     inkscape:pageshadow="2"
     inkscape:zoom="6.5625"
     inkscape:cx="64.07619"
     inkscape:cy="64.07619"
     inkscape:document-units="mm"
     inkscape:current-layer="layer1"
     inkscape:document-rotation="0"
     showgrid="false"
     inkscape:pagecheckerboard="true"
     units="px"
     inkscape:window-width="1920"
     inkscape:window-height="1038"
     inkscape:window-x="0"
     inkscape:window-y="0"
     inkscape:window-maximized="1"
     inkscape:showpageshadow="2"
     inkscape:deskcolor="#333333" />
  <metadata
     id="metadata5">
    <rdf:RDF>
      <cc:Work
         rdf:about="">
        <dc:format>image/svg+xml</dc:format>
        <dc:type
           rdf:resource="http://purl.org/dc/dcmitype/StillImage" />
        <dc:title />
      </cc:Work>
    </rdf:RDF>
  </metadata>
  <g
     inkscape:label="Layer 1"
     inkscape:groupmode="layer"
     id="layer1">
    <path
       id="path119"
       style="fill:#ffffff;stroke:#808080;stroke-width:0.529102;stroke-dasharray:none;stroke-opacity:1"
       d="M 13.973002,7.9007974 C 9.876136,7.9205 6.4206033,10.95701 5.8743956,15.01735 h -0.00374 c -3.0233565,0 -5.47427159,2.450916 -5.47427139,5.474272 -2e-7,3.023358 2.45091489,5.474271 5.47427139,5.474271 H 28.680294 c 2.645436,0 4.789988,-2.144551 4.789988,-4.789987 0,-2.645436 -2.144552,-4.789988 -4.789988,-4.789988 -0.159076,1.04e-4 -0.318047,0.0081 -0.476324,0.02406 -0.776646,-2.612225 -3.177784,-4.403404 -5.903019,-4.403473 -0.375319,4.7e-5 -0.749848,0.03441 -1.11891,0.102642 -1.450719,-2.59827 -4.193646,-4.2083158 -7.169479,-4.2083496 -0.01319,-3.17e-5 -0.02638,-3.17e-5 -0.03956,0 z"
       sodipodi:nodetypes="ccssccscccccc" />
  </g>
</svg>
