<?xml version="1.0" encoding="UTF-8" standalone="no"?>
<svg
   xmlns:dc="http://purl.org/dc/elements/1.1/"
   xmlns:cc="http://creativecommons.org/ns#"
   xmlns:rdf="http://www.w3.org/1999/02/22-rdf-syntax-ns#"
   xmlns:svg="http://www.w3.org/2000/svg"
   xmlns="http://www.w3.org/2000/svg"
   xmlns:sodipodi="http://sodipodi.sourceforge.net/DTD/sodipodi-0.dtd"
   xmlns:inkscape="http://www.inkscape.org/namespaces/inkscape"
   width="128"
   height="128"
   viewBox="0 0 33.866666 33.866668"
   version="1.1"
   id="svg8"
   inkscape:version="1.0.2 (e86c870879, 2021-01-15)"
   sodipodi:docname="lightcloud.svg">
  <defs
     id="defs2" />
  <sodipodi:namedview
     id="base"
     pagecolor="#333333"
     bordercolor="#666666"
     borderopacity="1.0"
     inkscape:pageopacity="0"
     inkscape:pageshadow="2"
     inkscape:zoom="5.9921875"
     inkscape:cx="64"
     inkscape:cy="64"
     inkscape:document-units="mm"
     inkscape:current-layer="layer1"
     inkscape:document-rotation="0"
     showgrid="false"
     inkscape:pagecheckerboard="true"
     units="px"
     inkscape:window-width="948"
     inkscape:window-height="1020"
     inkscape:window-x="0"
     inkscape:window-y="0"
     inkscape:window-maximized="0" />
  <metadata
     id="metadata5">
    <rdf:RDF>
      <cc:Work
         rdf:about="">
        <dc:format>image/svg+xml</dc:format>
        <dc:type
           rdf:resource="http://purl.org/dc/dcmitype/StillImage" />
        <dc:title />
      </cc:Work>
    </rdf:RDF>
  </metadata>
  <g
     inkscape:label="Layer 1"
     inkscape:groupmode="layer"
     id="layer1">
    <g
       id="g2865"
       transform="matrix(0.84110633,0,0,0.84110633,3.7034901,0.52576751)">
      <path
         sodipodi:type="star"
         style="fill:#ff6600;stroke-width:0.0710699;image-rendering:auto"
         id="path28"
         sodipodi:sides="8"
         sodipodi:cx="18.877993"
         sodipodi:cy="18.877993"
         sodipodi:r1="16.668751"
         sodipodi:r2="11.943921"
         sodipodi:arg1="0"
         sodipodi:arg2="0.39269908"
         inkscape:flatsided="false"
         inkscape:rounded="0"
         inkscape:randomized="0"
         d="m 35.546743,18.877993 -5.634006,4.57074 0.751842,7.215846 -7.215846,-0.751842 -4.57074,5.634006 -4.570741,-5.634006 -7.2158461,0.751842 0.7518425,-7.215846 -5.6340065,-4.57074 5.6340065,-4.570741 -0.7518425,-7.2158461 7.2158461,0.7518425 4.570741,-5.6340065 4.57074,5.6340065 7.215846,-0.7518425 -0.751842,7.2158461 z" />
      <circle
         style="fill:#ffcc00;fill-rule:evenodd;stroke-width:0.0755488"
         id="path10"
         cx="18.877993"
         cy="18.877993"
         r="11.377083" />
    </g>
    <path
       id="path119"
       style="fill:#ffffff;stroke-width:0.180309"
       d="m 8.2473941,20.276159 c -2.4088881,0.01158 -4.4406814,1.797002 -4.761842,4.184411 h -0.00219 c -1.7776811,0 -3.21877646,1.441095 -3.21877646,3.218777 0,1.777682 1.44109536,3.218774 3.21877646,3.218774 H 16.895028 c 1.55547,0 2.816427,-1.260958 2.816427,-2.816427 0,-1.555471 -1.260957,-2.816428 -2.816427,-2.816428 -0.09353,6e-5 -0.187007,0.0048 -0.280072,0.01414 -0.456655,-1.535943 -1.868483,-2.589126 -3.470873,-2.589167 -0.220681,2.9e-5 -0.440897,0.02023 -0.657901,0.06035 -0.852995,-1.527736 -2.465789,-2.474415 -4.2155291,-2.474436 -0.00774,-1.7e-5 -0.015505,-1.7e-5 -0.023263,0 z"
       sodipodi:nodetypes="ccssccscccccc" />
  </g>
</svg>
