<?xml version="1.0" encoding="UTF-8" standalone="no"?>
<svg
   xmlns:dc="http://purl.org/dc/elements/1.1/"
   xmlns:cc="http://creativecommons.org/ns#"
   xmlns:rdf="http://www.w3.org/1999/02/22-rdf-syntax-ns#"
   xmlns:svg="http://www.w3.org/2000/svg"
   xmlns="http://www.w3.org/2000/svg"
   xmlns:sodipodi="http://sodipodi.sourceforge.net/DTD/sodipodi-0.dtd"
   xmlns:inkscape="http://www.inkscape.org/namespaces/inkscape"
   width="128"
   height="128"
   viewBox="0 0 33.866666 33.866668"
   version="1.1"
   id="svg8"
   inkscape:version="1.0.2 (e86c870879, 2021-01-15)"
   sodipodi:docname="lightrainsun-night.svg">
  <defs
     id="defs2" />
  <sodipodi:namedview
     id="base"
     pagecolor="#333333"
     bordercolor="#666666"
     borderopacity="1.0"
     inkscape:pageopacity="0"
     inkscape:pageshadow="2"
     inkscape:zoom="5.9921875"
     inkscape:cx="37.04824"
     inkscape:cy="64"
     inkscape:document-units="mm"
     inkscape:current-layer="layer1"
     inkscape:document-rotation="0"
     showgrid="false"
     inkscape:pagecheckerboard="true"
     units="px"
     inkscape:window-width="948"
     inkscape:window-height="1020"
     inkscape:window-x="960"
     inkscape:window-y="0"
     inkscape:window-maximized="0" />
  <metadata
     id="metadata5">
    <rdf:RDF>
      <cc:Work
         rdf:about="">
        <dc:format>image/svg+xml</dc:format>
        <dc:type
           rdf:resource="http://purl.org/dc/dcmitype/StillImage" />
        <dc:title></dc:title>
      </cc:Work>
    </rdf:RDF>
  </metadata>
  <g
     inkscape:label="Layer 1"
     inkscape:groupmode="layer"
     id="layer1">
    <path
       id="path20"
       style="fill:#e5ff80;stroke-width:0.188754"
       d="M 19.264772,1.7306918 A 10.482128,10.482128 0 0 0 13.038278,11.309965 10.482128,10.482128 0 0 0 23.520406,21.792092 10.482128,10.482128 0 0 0 33.099338,15.566623 10.482128,10.482128 0 0 1 28.843361,16.469478 10.482128,10.482128 0 0 1 18.361234,5.987351 10.482128,10.482128 0 0 1 19.264772,1.7306918 Z" />
    <path
       id="path2232"
       style="fill:#00ffff;stroke:#00ffff;stroke-width:16254.5;stroke-linecap:round;stroke-linejoin:miter;stroke-miterlimit:4;stroke-dasharray:none;stroke-dashoffset:0"
       d="m 123740.19,193394.36 c 0,34825.4 -25879.885,63056.95 -57805.797,63056.95 -31925.907,0 -57805.7998,-28231.55 -57805.7998,-63056.95 0,-34825.36 57805.7998,-172416.452 57805.7998,-172416.452 0,0 57805.797,137591.052 57805.797,172416.452 z"
       sodipodi:nodetypes="ssscs" />
    <path
       id="path2232-6"
       style="fill:#00ffff;stroke:#00ffff;stroke-width:1.25564;stroke-linecap:round;stroke-linejoin:miter;stroke-miterlimit:4;stroke-dasharray:none;stroke-dashoffset:0"
       d="m 11.54301,26.987498 c 0,2.575773 -2.0880751,4.663848 -4.6638469,4.663848 -2.5757697,0 -4.663843,-2.088075 -4.663843,-4.663848 0,-2.575769 4.663843,-12.752346 4.663843,-12.752346 0,0 4.6638469,10.176575 4.6638469,12.752346 z"
       sodipodi:nodetypes="ssscs" />
  </g>
</svg>
