<?xml version="1.0" encoding="UTF-8" standalone="no"?>
<svg
   xmlns:dc="http://purl.org/dc/elements/1.1/"
   xmlns:cc="http://creativecommons.org/ns#"
   xmlns:rdf="http://www.w3.org/1999/02/22-rdf-syntax-ns#"
   xmlns:svg="http://www.w3.org/2000/svg"
   xmlns="http://www.w3.org/2000/svg"
   xmlns:sodipodi="http://sodipodi.sourceforge.net/DTD/sodipodi-0.dtd"
   xmlns:inkscape="http://www.inkscape.org/namespaces/inkscape"
   width="128"
   height="128"
   viewBox="0 0 33.866666 33.866668"
   version="1.1"
   id="svg8"
   inkscape:version="1.0.2 (e86c870879, 2021-01-15)"
   sodipodi:docname="partlycloud-night.svg">
  <defs
     id="defs2" />
  <sodipodi:namedview
     id="base"
     pagecolor="#333333"
     bordercolor="#666666"
     borderopacity="1.0"
     inkscape:pageopacity="0"
     inkscape:pageshadow="2"
     inkscape:zoom="5.9921875"
     inkscape:cx="64"
     inkscape:cy="64"
     inkscape:document-units="mm"
     inkscape:current-layer="layer1"
     inkscape:document-rotation="0"
     showgrid="false"
     inkscape:pagecheckerboard="true"
     units="px"
     inkscape:window-width="948"
     inkscape:window-height="1020"
     inkscape:window-x="960"
     inkscape:window-y="0"
     inkscape:window-maximized="0" />
  <metadata
     id="metadata5">
    <rdf:RDF>
      <cc:Work
         rdf:about="">
        <dc:format>image/svg+xml</dc:format>
        <dc:type
           rdf:resource="http://purl.org/dc/dcmitype/StillImage" />
        <dc:title></dc:title>
      </cc:Work>
    </rdf:RDF>
  </metadata>
  <g
     inkscape:label="Layer 1"
     inkscape:groupmode="layer"
     id="layer1">
    <path
       id="path20"
       style="fill:#e5ff80;stroke-width:0.188754"
       d="M 19.264772,1.7306918 A 10.482128,10.482128 0 0 0 13.038278,11.309965 10.482128,10.482128 0 0 0 23.520406,21.792092 10.482128,10.482128 0 0 0 33.099338,15.566623 10.482128,10.482128 0 0 1 28.843361,16.469478 10.482128,10.482128 0 0 1 18.361234,5.987351 10.482128,10.482128 0 0 1 19.264772,1.7306918 Z" />
    <path
       id="path119"
       style="fill:#ffffff;stroke-width:0.271142"
       d="m 12.268813,16.197682 c -3.6223866,0.01742 -6.6777141,2.702257 -7.1606624,6.292345 h -0.0033 c -2.6732044,0 -4.84026492,2.167061 -4.84026482,4.840266 -1e-7,2.673205 2.16706042,4.840263 4.84026482,4.840263 H 25.272771 c 2.339053,0 4.235231,-1.896177 4.235231,-4.23523 0,-2.339054 -1.896178,-4.235231 -4.235231,-4.235231 -0.140654,9.1e-5 -0.281213,0.0072 -0.42116,0.02128 -0.686698,-2.309689 -2.809746,-3.893421 -5.219355,-3.893482 -0.331851,4.2e-5 -0.663005,0.03042 -0.989325,0.09075 -1.282701,-2.297348 -3.707954,-3.720924 -6.339139,-3.720954 -0.01166,-2.8e-5 -0.02332,-2.8e-5 -0.03498,0 z"
       sodipodi:nodetypes="ccssccscccccc" />
  </g>
</svg>
